/* XPM */
static char *_3bd31b3a4624570f433ee976dcce4aaSBASTdDxM22bEEDF[] = {
/* columns rows colors chars-per-pixel */
"40 40 221 2 ",
"   c None",
".  c #010101",
"X  c #030D0D",
"o  c #050703",
"O  c #1B1402",
"+  c #171300",
"@  c #010F11",
"#  c #001212",
"$  c #051D1A",
"%  c #051D15",
"&  c #1F1612",
"*  c #100C08",
"=  c #2A1C0D",
"-  c #271916",
";  c #360F12",
":  c #03241E",
">  c #09201D",
",  c #082216",
"<  c #1F2019",
"1  c #2E221B",
"2  c #2B2518",
"3  c #38271A",
"4  c #0B2421",
"5  c #062B23",
"6  c #122D23",
"7  c #0C3C2E",
"8  c #083427",
"9  c #12352A",
"0  c #17392A",
"q  c #193C33",
"w  c #342E22",
"e  c #3D2E27",
"r  c #3A322B",
"t  c #2D332F",
"y  c #471416",
"u  c #600F15",
"i  c #442A19",
"p  c #472D26",
"a  c #45372C",
"s  c #583629",
"d  c #533C34",
"f  c #5C2A2C",
"g  c #703030",
"h  c #154633",
"j  c #1A4A37",
"k  c #12432D",
"l  c #234636",
"z  c #21533C",
"x  c #2B5035",
"c  c #2C5133",
"v  c #4A402F",
"b  c #534433",
"n  c #5D4839",
"m  c #59422D",
"M  c #66442C",
"N  c #614437",
"B  c #7E4F30",
"V  c #6A553D",
"C  c #7D633F",
"Z  c #6B3D41",
"A  c #215440",
"S  c #265B44",
"D  c #2C5E4A",
"F  c #345648",
"G  c #284D41",
"H  c #2D624B",
"J  c #2C684F",
"K  c #33694E",
"L  c #376C55",
"P  c #397458",
"I  c #54595A",
"U  c #4E5050",
"Y  c #6B4D43",
"T  c #665645",
"R  c #715C4A",
"E  c #7F584A",
"W  c #7D5E53",
"Q  c #784D46",
"!  c #40725B",
"~  c #5C6A51",
"^  c #7D6447",
"/  c #576666",
"(  c #447B64",
")  c #64666B",
"_  c #687576",
"`  c #74767A",
"'  c #626B77",
"]  c #804D32",
"[  c #815539",
"{  c #93603F",
"}  c #845946",
"|  c #945C42",
" . c #965B57",
".. c #976247",
"X. c #9A6958",
"o. c #906A55",
"O. c #A86C57",
"+. c #A87557",
"@. c #AD7252",
"#. c #9E6A63",
"$. c #997461",
"%. c #9C7668",
"&. c #84736D",
"*. c #AB6D66",
"=. c #AA7967",
"-. c #AC7872",
";. c #39805B",
":. c #458467",
">. c #4B8C71",
",. c #469374",
"<. c #4C9373",
"1. c #4D9877",
"2. c #569776",
"3. c #67887D",
"4. c #6A9B7E",
"5. c #B38159",
"6. c #9D8A67",
"7. c #A8806E",
"8. c #B48162",
"9. c #BA836D",
"0. c #B98668",
"q. c #BC8A78",
"w. c #A48377",
"e. c #C1896B",
"r. c #C48D71",
"t. c #C5847D",
"y. c #CA9473",
"u. c #C6927C",
"i. c #CD9E7E",
"p. c #C8917B",
"a. c #D29E7F",
"s. c #C39369",
"d. c #787E85",
"f. c #867F94",
"g. c #738888",
"h. c #9C908D",
"j. c #918B91",
"k. c #869397",
"l. c #9D9393",
"z. c #8A8E99",
"x. c #A89683",
"c. c #AA9188",
"v. c #87AB9D",
"b. c #B1A392",
"n. c #9E9CA7",
"m. c #98A9A9",
"M. c #8CB5A2",
"N. c #9FA5B0",
"B. c #90B5A5",
"V. c #A5A6A8",
"C. c #B8ACAD",
"Z. c #ABADB3",
"A. c #A7ACB7",
"S. c #B3AFB9",
"D. c #B2B4BC",
"F. c #B6B5BB",
"G. c #CA9382",
"H. c #CC9A86",
"J. c #C99B8B",
"K. c #D69A89",
"L. c #DA9D93",
"P. c #C18D8C",
"I. c #CBA284",
"U. c #D4A38C",
"Y. c #DAAA8C",
"T. c #DAA58A",
"R. c #CEA497",
"E. c #D3A496",
"W. c #D7A991",
"Q. c #DBAA92",
"!. c #D7A899",
"~. c #DCB196",
"^. c #DCB29A",
"/. c #D7B196",
"(. c #E2A59A",
"). c #E3B39A",
"_. c #E8B59D",
"`. c #DAB9A8",
"'. c #CCB1A4",
"]. c #E8ABA2",
"[. c #E5B5A4",
"{. c #E9B5A4",
"}. c #E3BBAA",
"|. c #E8B7AB",
" X c #BFC0B8",
".X c #AAC1B5",
"XX c #CCC0B3",
"oX c #D2C7A8",
"OX c #E2C2B7",
"+X c #E6C2AC",
"@X c #B4B9C4",
"#X c #B9BBC3",
"$X c #BCBECA",
"%X c #B6B6C3",
"&X c #C9BFC8",
"*X c #B5C6C5",
"=X c #BFD7CD",
"-X c #BAD7D0",
";X c #C2C3CC",
":X c #C7C7CA",
">X c #C3C6D1",
",X c #CCCCD5",
"<X c #CAC7D0",
"1X c #D1CED5",
"2X c #D4D4DB",
"3X c #D8D7DD",
"4X c #DAD9DE",
"5X c #D5DBDD",
"6X c #CCDBD9",
"7X c #E4D3C8",
"8X c #CBE3D8",
"9X c #EBE5D5",
"0X c #DCDDE1",
"qX c #D6D9E1",
"wX c #DEE5E7",
"eX c #E2E1E6",
"rX c #E5E3EB",
"tX c #E6EBEC",
"yX c #EBF1EF",
"uX c #ECEFF2",
"iX c #EEF5F0",
/* pixels */
"                                                                                ",
"                                                                                ",
"                                                                                ",
"                              M C ^ 6.n b.                                      ",
"                              V o T a 3 b T                                     ",
"                            = p & & 1 R = b x.                                  ",
"                            R d d e - 1 U . b                                   ",
"                            b $.$.q.w.X.W n r                                   ",
"                            o.%.J.!.R.J.J.-.&.                                  ",
"                            x.9.G.R.E.R.R.-.h.u                                 ",
"                            X.G.-.=.q.q.o.p #.                                  ",
"                            t.9.-.f y R.3 Z g '.                                ",
"                            `.K.OX(.}.`.G.P.  }.                                ",
"                            +X{.(.#.Q.[.}.L.^.E.                                ",
"                          [.[.!.].|.L.q.y ; X.p.J.                              ",
"                      OX[.].Q.L. .s Q t.{.(.U.K.T.!.7X                          ",
"                    ).).{.^.O.9.|.!.*.p 3 3 i *.H.U.H.U.9X                      ",
"                oX_.~.).u.X.} N n - a R *.%.} X.q.Q.U.W.W.W.XX                  ",
"              /.Y.~.H.u.9.~ l x . . . . . . o l t E +.r.Q.W.W.Y./.'.            ",
"          /.T.^.Q.p.G.X.4.P q q 9 l 4 # @ 4 : # $ z n 8.r.y.a.U.i.i.i.I.        ",
"      ^.Q.Y.).r.U.9.E :X! 6 F 6 : > $ $ 4 4 $ # # q q V.} 8.y.y.8.e.y.5.5.`.    ",
"    I.T.^.u.H.u.=.Y %X&XC.C.V.l.l.j.d.` k./ / t I f.n.) % v ..0.e.e.8.+.@.q.b.  ",
"  s.a.Q.!.H.9.+.R , h.V.l c 4XeX2X2X#X,X4X;X:.2.v.>XS.U % o * } ..+.{ ..| ..@.  ",
"  y.K.u.9.X.$.Y . o < &.l.qX0XqX,X,X2X2X3XD.V.M.8X3Xn.' _ o . a m M B [ ] O.|   ",
"r.y.y.+.X.X.d a . . . > P :.:.<.g.*X-XB.B.8XuX*X,X3.$ 9 . . o o 2 w 3 = i M s   ",
"..8.} N N e r     . . % <.wXuX1.<.,.>.,.1.1.,.,.;.9 X j X X         w O O + O   ",
"  M 1 1 w         . . L 6X<.tX:.eXtX.X1.1.iXiXv.N.6 : G :                       ",
"  1 2 w           . o >.F 5X0X( wX3.tX=XyX*Xm.*Xk.j 7 S 5                       ",
"                  X I / j 9 1.S A A S J L K P 8 : 5 j D 7                       ",
"                  I V.@XqX>XZ.D.wX,XqXqX2X;X>Xg.A.A.%X$X*X                      ",
"                  I A.3Xd.eX1X2XZ.F.rXD.N.N.@X$X0X#X@X>X X                      ",
"                  ) D.,X;X3X2X0XeXrX4XF.3XeX3X` I d.$X;Xb.                      ",
"                  _ D.Z.<X1X4X2X:X4X#XD.,XS.<XZ.S.z.%X#X                        ",
"                  h j z S h k K L S H K H D H A 7 h z j                         ",
"                                                                                ",
"                                                                                ",
"                                                                                ",
"                                                                                ",
"                                                                                ",
"                                                                                "
};
