/* XPM */
static char *_94b4711e15e4bd8fb5837ec188d9783v5Osr9uqP2i3OMsr[] = {
/* columns rows colors chars-per-pixel */
"40 40 198 2 ",
"   c None",
".  c #1B120E",
"X  c #0F0F11",
"o  c #130E12",
"O  c #171314",
"+  c #110B09",
"@  c #21140A",
"#  c #29120B",
"$  c #2C1B0E",
"%  c #35170F",
"&  c #341F0E",
"*  c #3A160B",
"=  c #201B1F",
"-  c #261914",
";  c #371713",
":  c #341D13",
">  c #3B1B13",
",  c #28201D",
"<  c #342416",
"1  c #3C2313",
"2  c #3E2816",
"3  c #37221D",
"4  c #3C230D",
"5  c #1F1D20",
"6  c #1D2025",
"7  c #242225",
"8  c #2A272D",
"9  c #322B2A",
"0  c #2E2E30",
"q  c #3E3530",
"w  c #421A0D",
"e  c #4B1C0D",
"r  c #431D12",
"t  c #4C1E12",
"y  c #4A1F18",
"u  c #50210F",
"i  c #422514",
"p  c #4C2113",
"a  c #442914",
"s  c #49261D",
"d  c #432D1B",
"f  c #4C2E1B",
"g  c #4C2C16",
"h  c #542214",
"j  c #5B2515",
"k  c #592A17",
"l  c #572618",
"z  c #5C2718",
"x  c #532C1A",
"c  c #5D2C1C",
"v  c #512F14",
"b  c #45311B",
"n  c #4B311E",
"m  c #4F3A1D",
"M  c #52321D",
"N  c #563716",
"B  c #632C1B",
"V  c #6A2E1C",
"C  c #622917",
"Z  c #66311E",
"A  c #6D321E",
"S  c #663F16",
"D  c #73341E",
"F  c #4C2D21",
"G  c #4D3322",
"H  c #543B23",
"J  c #5E3020",
"K  c #403836",
"L  c #642C22",
"P  c #633223",
"I  c #6B3423",
"U  c #6C3A25",
"Y  c #733621",
"T  c #753A25",
"R  c #7B3B23",
"E  c #743C29",
"W  c #7B3D29",
"Q  c #7C422D",
"!  c #79462D",
"~  c #7D4531",
"^  c #7E4F38",
"/  c #4B4F52",
"(  c #5B5758",
")  c #4B4B4D",
"_  c #785C43",
"`  c #615851",
"'  c #7C6249",
"]  c #5A5E62",
"[  c #5B6365",
"{  c #66696B",
"}  c #647B6C",
"|  c #70706E",
" . c #656F71",
".. c #6A6D72",
"X. c #6E7B72",
"o. c #777675",
"O. c #823D26",
"+. c #833E29",
"@. c #853B27",
"#. c #844126",
"$. c #84432C",
"%. c #8B452E",
"&. c #8C4A2E",
"*. c #874927",
"=. c #92452E",
"-. c #924B2E",
";. c #834632",
":. c #8B4631",
">. c #854A35",
",. c #8C4B32",
"<. c #874D3A",
"1. c #894E3A",
"2. c #924D32",
"3. c #9F4D37",
"4. c #8B5035",
"5. c #8C523C",
"6. c #84513A",
"7. c #935136",
"8. c #9B5436",
"9. c #94543B",
"0. c #9C563A",
"q. c #95593C",
"w. c #9B593D",
"e. c #9D5937",
"r. c #A25B3D",
"t. c #A05737",
"y. c #A9623E",
"u. c #B0663F",
"i. c #AB7B3B",
"p. c #875945",
"a. c #965540",
"s. c #995741",
"d. c #9B5B42",
"f. c #975E43",
"g. c #A45E41",
"h. c #A95D44",
"j. c #8B614B",
"k. c #9F6347",
"l. c #9F6649",
"z. c #84704F",
"x. c #84645B",
"c. c #936A55",
"v. c #946859",
"b. c #A46243",
"n. c #AA6343",
"m. c #A2644C",
"M. c #AD6549",
"N. c #A9694D",
"B. c #B57B4B",
"V. c #77807B",
"C. c #B58136",
"Z. c #B48977",
"A. c #7A7D84",
"S. c #777E84",
"D. c #827F86",
"F. c #7C8185",
"G. c #7E8589",
"H. c #7D8B8A",
"J. c #838689",
"K. c #888A8E",
"L. c #86968D",
"P. c #878A91",
"I. c #898C90",
"U. c #918E97",
"Y. c #8E9294",
"T. c #949A9E",
"R. c #919392",
"E. c #A39592",
"W. c #8AA18F",
"Q. c #959CA2",
"!. c #9B9EA4",
"~. c #9CA2A5",
"^. c #9EA5AA",
"/. c #9EAAAA",
"(. c #A3AAAD",
"). c #A2A6A9",
"_. c #AABEAE",
"`. c #A3B6AA",
"'. c #A6AEB2",
"]. c #A9ADB1",
"[. c #A7AEB8",
"{. c #ABB2B5",
"}. c #ABBBB4",
"|. c #ADB4B9",
" X c #AEBCBA",
".X c #A6B1B7",
"XX c #B3B4B5",
"oX c #B2B6BA",
"OX c #B4B9BC",
"+X c #B9BDBF",
"@X c #B2C4BD",
"#X c #B6BCC2",
"$X c #B9BEC2",
"%X c #BABEC1",
"&X c #BBC1C5",
"*X c #BBC6C5",
"=X c #C1C6CE",
"-X c #C6D1CD",
/* pixels */
"                                                                                ",
"                                  *XOX&X&X$X$X$X+X X X                          ",
"                            `.oXI.|.{.OX$X#X#X&X(.{.OXOX#X*X                    ",
"                         XoX{.|.|.|.{.{.|.|.{.#XT.'.|.OX#XOXOX                  ",
"                    _.[.'.|.{.{.|.{.{.{.{.{.|.~.].'.{.|.{.{.#X@X                ",
"                 XL.[.'.'.(.!.Q.3 ` |.{.q $ @ @ ( { | oX{.].|.P.`.              ",
"              OXOXOXOX].'.!.~.0 - 7 7 , = O O . = 5 o.o.{.{.XX+X$X%X            ",
"            ).OXOXOXOX].( 1 9 6 < ; w w % ; > : + o # 7 / J.].].$X$X-X          ",
"            OXOXOXOXOXK 9 : g x < p i i % * r 1 r p # . - . ].].oX$X$X          ",
"          !.  oXOXOXT.7 F 2 Y V 1 x h e r w t r h h $ * # - 8 {.{.&XQ.          ",
"          ^.^.(.oX#X- B P f T D d j j u y t h p j C i w e # + ].8 ).+X&X        ",
"          ^.).(.(.8 R c I J Q R D I C t p p h h j j z w e t t o (.(.|.oX        ",
"        /.(.(.(.].#.R c I P W O.Y Z B z h h h l C B c w e t e s ].(.(.|.@X      ",
"        ^.(.(.(...%.+.Q T P #.#.R I A c h l z B C V B t h h h l ) (.(.{.oX      ",
"          ..S.] ..&.$.;.W U ,.%.O.B Y B z z C C V A V p j j j k X ] G.G.!.      ",
"      _.(.{.oXoXXX&.$.>.Q E 7.&.$.T T Z c c V B D Y I h j z z B ].].].oXoX .    ",
"      W.~.{.oXoXc.,.,.>.$.E 7.2.%.W R I B P A A D R T x C c C B E.].].oXoX .    ",
"        ~.{.oXoXp.7.,.$.;.Q w.2.%.$.+.I Z P Y A R O.W c V B V Z L '.].oXOXH.    ",
"        '.).oXOXp.d g b n n f f b v d d 1 i a 1 1 1 & : & * $ $ I (.].oX#X      ",
"        T.P.^.|.q.g f f x M M M v x G F s d a i a 2 1 1 4 e > ; T OXQ.Q.(.      ",
"        Q.Q.(.(.f.g.8.7.7.<.0.r.e.,.,.~ Q ! %.#.&.2.,.U T T R ! T ~.Q.].{.}.    ",
"      } T.!.(.(.f.b.e.R 7.1.0.r.e.7.7.;.W $.%.$.-.7.7.T R Y @.Q R /.~.(.'.*X    ",
"      L.A.!.(./ k.b.e.,.7.1.8.r.e.7.7.>.Q ;.,.%.-.8.7.T R R @.Q R [ (.(.^.*X    ",
"        XXXX+XOXm.b.w.,.q.5.7.q.B.7.7.>.Q >.2.:.-.3.7.T +.#.@.Q R Q.oX$XOX      ",
"        XXXX$X$Xk.b.r.,.q.1.7.6.W 6.7.1.;.;.2.,.2.~ I U +.#.@.~ #.oXoX$X+X      ",
"        {.XX+X$Xl.b.r.,.a.1.:.<.@.^ 9.<.>.;.2.,.:.+.#.P #.$.@.~ O.OXOX$X$X      ",
"        {.XX+X+Xl.n.r.R a.5.,.*.&.4.q.<.>.>.2.,.2.W W I $.$.@.~ O.OXOX$X$X      ",
"        K.XXOX .m.n.r.D w.5.7.r.g.q.9.1.;.>.2.,.8.8.7.E $.$.+.;.O.F.OX$XoX      ",
"        } {.{.}.N.M.r.%.d.5.8.n.r.w.8.,.:.>.2.&.8.t.8.W ;.:.#.~ #.'.(.].}.      ",
"        L.|.{..Xm.H C.H H H H H H i.H m I M S N n n d d d N 2 < Q ].].'.A.      ",
"        Y.I.{.].b.q.5.~ ;.! W :.Q U Z k U p h p h k h w e p t p $.~.].oX|.      ",
"        R.J.(.].n.n.h.#.d.a.r.n.h.w.s.1.<.1.7.,.8.r.0.Q $.%.%.>.@.).~.{.&X      ",
"        K.J.(.(.b.n.g.,.f.5.r.n.n.w.w.5.v.<.7.7.8.r.e.Q $.:.%.>.@.~.~.{.oX      ",
"        U.F.Q.H.n.n.g.&.d.5.e.n.n.d.w.4.v.1.7.7.8.r.e.~ $.,.%.>.@.[ F.G.^.      ",
"        '.{.OX|.n.n.g.7.d.5.e.n.b.w.d.5.v.5.7.7.e.r.e.Q %.:.=.>.$.~.].OXOX      ",
"        ].].OXXXn.n.g.7.d.5.n.n.b.w.d.5.v.5.7.7.e.r.r.Q %.,.=.>.O.G.~.oX&X      ",
"        (.].oX).n.n.g.w.d.5.n.n.b.8.w.5.Z.5.7.7.e.r.r.;.:.:.=.>.#.A.Y.oX=X      ",
"        !.(.oXD.M.u.y.s.d.5.n.y.n.d.d.9.Z.4.9.7.e.r.r.~ %.,.=.! #.| J.OX=X      ",
"        o.o.#XV.' x.x.z.' _ _ c.c.j.p.p.  5.q.9.w.g.g.;.7.%.*.5.~ X.A.(.{.      ",
"                                                                                "
};
