/* XPM */
static char *_ec82c9109024684e5c280c2d001c0acdQxV4lk7PkZkeUUv[] = {
/* columns rows colors chars-per-pixel */
"40 40 174 2 ",
"   c None",
".  c #B87707",
"X  c #B37E05",
"o  c #BA7903",
"O  c #B77708",
"+  c #BA750C",
"@  c #B5790D",
"#  c #BB790A",
"$  c #B67C14",
"%  c #BA7A14",
"&  c #B47B1A",
"*  c #B57E2B",
"=  c #C66E03",
"-  c #CC6F04",
";  c #C57406",
":  c #CA7204",
">  c #C7750F",
",  c #CA7208",
"<  c #C27E0B",
"1  c #C27411",
"2  c #B4811A",
"3  c #B78D18",
"4  c #BC9A24",
"5  c #B59729",
"6  c #BF9D2A",
"7  c #D1810C",
"8  c #C68617",
"9  c #DA9119",
"0  c #D3991F",
"q  c #C98C26",
"w  c #C49425",
"e  c #C09923",
"r  c #CE9F29",
"t  c #D29122",
"y  c #D99322",
"u  c #D09C27",
"i  c #D09E2F",
"p  c #C29430",
"a  c #D6A827",
"s  c #D5A02F",
"d  c #DEA929",
"f  c #C5A431",
"g  c #CDAB36",
"h  c #CFA23C",
"j  c #D3A035",
"k  c #DDAF34",
"l  c #D8A43A",
"z  c #CFB03C",
"x  c #D9B634",
"c  c #DCB53B",
"v  c #EBAE27",
"b  c #EBA22C",
"n  c #EAAF2C",
"m  c #E6B736",
"M  c #EDBB36",
"N  c #EDBE38",
"B  c #EFC23B",
"V  c #C6B24C",
"C  c #DCB543",
"Z  c #DDB34A",
"A  c #DABC48",
"S  c #E0B149",
"D  c #E6BD4B",
"F  c #DEC344",
"G  c #DEC553",
"H  c #E0C244",
"J  c #EDCA4E",
"K  c #F6CD42",
"L  c #FAC749",
"P  c #F5CD4B",
"I  c #F5D444",
"U  c #FBD346",
"Y  c #F6D149",
"T  c #FBD44C",
"R  c #F8DC4E",
"E  c #EBCF59",
"W  c #F6C750",
"Q  c #F3CC55",
"!  c #EFD45A",
"~  c #F6D457",
"^  c #FBD652",
"/  c #F5D857",
"(  c #FDD954",
")  c #F6DB5E",
"_  c #FDDD5B",
"`  c #FDE15D",
"'  c #DFD06A",
"]  c #EEC960",
"[  c #EDCB6A",
"{  c #F1D566",
"}  c #F5DE62",
"|  c #FDDE63",
" . c #F3DD6A",
".. c #F8DF6C",
"X. c #EFCF71",
"o. c #EED479",
"O. c #FEE264",
"+. c #F7E06A",
"@. c #FEE56C",
"#. c #FEE86D",
"$. c #F7E276",
"%. c #FDE572",
"&. c #F4ED75",
"*. c #FEE974",
"=. c #F7E77C",
"-. c #FBE77A",
";. c #FEEC7B",
":. c #FFF17D",
">. c #FADF80",
",. c #FDED82",
"<. c #FFEE8C",
"1. c #FEF184",
"2. c #F6F28F",
"3. c #FEF38B",
"4. c #F6F397",
"5. c #FEF593",
"6. c #FDF895",
"7. c #F8F49A",
"8. c #FFF798",
"9. c #FCF79B",
"0. c #FFF69A",
"q. c #FFF79C",
"w. c #FDF69B",
"e. c #FFF999",
"r. c #FFF99A",
"t. c #FEF89A",
"y. c #FFF99D",
"u. c #FEF89D",
"i. c #FFFB9C",
"p. c #FFF89E",
"a. c #FEF99C",
"s. c #FFF7A1",
"d. c #FEF6A2",
"f. c #FBF7A5",
"g. c #FFF7A4",
"h. c #FDF5A3",
"j. c #FDF9A1",
"k. c #FEFBA0",
"l. c #FFFBA0",
"z. c #FFFAA3",
"x. c #FEF8A1",
"c. c #FAFEA0",
"v. c #FAF9A5",
"b. c #F9FBA6",
"n. c #FAFBA6",
"m. c #FFF9A4",
"M. c #FDFBA4",
"N. c #FDFBA5",
"B. c #FFFAA5",
"V. c #FFFBA4",
"C. c #FFF9A7",
"Z. c #FDFBA6",
"A. c #FFFBA7",
"S. c #FBFCA4",
"D. c #FDFDA5",
"F. c #FFFCA4",
"G. c #FDFCA6",
"H. c #FFFEA7",
"J. c #FFFAA4",
"K. c #FFF7A9",
"L. c #FBFAA9",
"P. c #FDFBA8",
"I. c #FFFBA9",
"U. c #FFF9AA",
"Y. c #FEF9AA",
"T. c #FBFCA9",
"R. c #F8FEA8",
"E. c #FCFDA9",
"W. c #FFFDA9",
"Q. c #FFF9AF",
"!. c #FEFBAC",
"~. c #FFFDB5",
"^. c #FEFDBA",
"/. c #FCFCC0",
/* pixels */
"                                                                                ",
"                                                                                ",
"                                  C D Q J Q A                                   ",
"                            { A.k.p.q.8.5.1.1.-.;.O.                            ",
"                        A.E.A.A.A.t.8.5.1.1.,.;.*.*.@.O.>.                      ",
"                    D D.Y.Y.A.A.[ ; : 7 ; 9 b W #.@.O.` ^ _                     ",
"                  A.Q.A.R.D., ; *.;.:.3.8.n.E.k.C v ^ _ ^ U ^                   ",
"                c.Y.Y.D., t O.g -.1.5.| ;.d.0.0.3.1.*.M T T ( `                 ",
"              S.D.n.k.- ( O.} ` ,.5.d.V 3.d.8.8.;.E ;.*.B ^ _ O.@.              ",
"            8.k.L.7.- ` O.*.;.5 5.t.A.1.t.5.5.3.1.;.*.#.| T ( #.*.-.            ",
"          S c.k.K.- _ #.w ;.1.5.p.A.k.*.# 7.3.1.;.*.#.O.*.^ ( *.;.,.`           ",
"          n.R.f.: _ O.O.;.1.5.p.A.@.@.;.:.8.p.+.*.@.O._ a T T _ 1.1.5.          ",
"        k A.Y.% O.@.*.;.1.5.p.Y.` 0.p.0.# 1.=.t.u O._ ( T ( _ O.O.5.t.-.        ",
"        E.A.k.= O.3 ,.1.8.t.A.@.*.] 5.k.O ;.*.1.i _ ^ T ^ _ O.#.@.0.g.A.        ",
"        Y.i.% @.O.&.1.5.p.A.k.;.3.5.1.0.. #.@.*.h T T ( _ | _ ;.1.#.A.Q.c       ",
"      { A.p., #.*.1.6.t.A.A.p.6.q.2 1.3.# @.` / h T ( _ O.#.4 ;.1.#.!.^.q.      ",
"      q.k.k.< ;.1.5.t.A.k.q.8.F.k.9.;.1.o | _ T T ( _ O.#.*.,.3.8.t.~.~.~.      ",
"      7.t.<.1.1.5.p.A.A.q.t.5.;.0.3.1.*.# ( ( T ^ _ | @.*.1.3.6.q.!.5.~.Y.      ",
"      0.8.l 1.*.;.k.k.p.8.5.1.,.) ,.*.#.@.^ T T ( O.#.*.,.3.8.%.-.~.,.Y.k.      ",
"      8.5.+ 2.H -.A.p.0.5.3.1.;.*.O.O.` T T ^ ^ O.#.*.1.3.8.k.z @./.1.k.8.      ",
"      5.1.8 k.d.g.p.8.5.1.1.;.*.@.O._ T ( _ @.O.#.*.,.3.8.A.!.^.~.Y.1.8.1.      ",
"      ,.1.r A.k.p.8.5.1.1.;.*.@.O._ T _ 0 #.*.1.! 1.3.8.k.Q.^.~.A.8.1.1.;.      ",
"      1.:.@.D.0.8.5.1.1.;.*.@.O.^ T T #.o O.3.p.!.5.8.k.Q.^.^.k.' ,.1.;.*.      ",
"      ;.*.*.C $.*.1.1.;.*.@.O._ T T ^ ,.o *.*.~.~.j k.!.^.^.D.O.+.@.,.*.O.      ",
"      @.*.#.v 8.4 1.*.*.@.O.( A.^ ^ _ 8.o ;.1.!.a.q !.~.~.D.8.:.#.1.*.O.|       ",
"      o.@.O.n 1.1.;.*.@.O._ T @.^ _ O.R.# 1.3.5.,.X.^.^.k.5.,.@._ 1.O.O.1       ",
"        O.` _ m ;.*.@.O._ T T ;.e O.#.~.@ 3.0.@.:.^.~.k.5.G @._ O.@._ R         ",
"        O._ ^ B #.@.*.x T T ^ 4.h.-.*.A.% k.O.$.Q.~.k.5.1.O.w ( 3._ ^ P         ",
"          _ T T P O._ ^ T ( _ O./ 8.t.3.;.=.p ~.~.k.5.,.@.d T 1.) ^ Y           ",
"          #.T ( ( ^ T T P ) O.@.;.1.3.O.X ~.^.^.k.5.;.@._ T ! *.( T 9           ",
"            ^ ( O.( ( ( _ #.6 *.1.5.q.~ X ~.~.A.5.;.*.c T ) 1.^ T T             ",
"              O.@.*.@._ O.F f 1.5.,.5.Q.^.L.5.3.;.#._ T *.:.T T T               ",
"                *.*.;.1.O.*.1.3.8.^ %.~.~.,.*. .@._ T 1.) ^ U K &               ",
"                  ;.1.3.8.,.#.3.F.p.~.~.k.1...#.) 1.1._ ( T N *                 ",
"                    <.3.t.A.Y.D.=.*.;.;.,.1.1.3.*.O._ ( I L                     ",
"                      Z p.E.~.^.^.~.D.t.5.1.;.#.O._ T K +                       ",
"                          Z !.~.~.Y.q.5.1.;.#.O._ ( >                           ",
"                                2 s  .$...Q y $                                 ",
"                                                                                ",
"                                                                                "
};
