/* XPM */
static char *d183eab32c8242d8ae26d6e71d368c5dCnrT5FQJmD1RU19j[] = {
/* columns rows colors chars-per-pixel */
"40 40 103 2 ",
"   c #5E7E17",
".  c #5E7E1C",
"X  c #607E1D",
"o  c #5D7A21",
"O  c #607F22",
"+  c #5E840C",
"@  c #5E8315",
"#  c #5D801B",
"$  c #62860F",
"%  c #678E0B",
"&  c #618415",
"*  c #658A16",
"=  c #698F15",
"-  c #63841D",
";  c #66891D",
":  c #6A8D1D",
">  c #6A9216",
",  c #6C921D",
"<  c #70961D",
"1  c #749B1D",
"2  c #658521",
"3  c #688723",
"4  c #678921",
"5  c #6A8B23",
"6  c #62832A",
"7  c #6C8C29",
"8  c #6E9520",
"9  c #6B9025",
"0  c #6E9124",
"q  c #6D9029",
"w  c #6F9228",
"e  c #6D902C",
"r  c #709521",
"t  c #709224",
"y  c #709225",
"u  c #729624",
"i  c #759427",
"p  c #729824",
"a  c #749B24",
"s  c #779A26",
"d  c #779D25",
"f  c #779F24",
"g  c #729329",
"h  c #739429",
"j  c #72962A",
"k  c #76982A",
"l  c #76992D",
"z  c #799B2B",
"x  c #789F29",
"c  c #7B9C2E",
"v  c #769730",
"b  c #759831",
"n  c #799932",
"m  c #7A9E31",
"M  c #7EA725",
"N  c #7EA427",
"B  c #7BA328",
"V  c #7DA32B",
"C  c #7FA92D",
"Z  c #7CA231",
"A  c #7EA133",
"S  c #7EA532",
"D  c #80A725",
"F  c #80A827",
"G  c #81A72F",
"H  c #85AD2B",
"J  c #8BAF2C",
"K  c #89B12F",
"L  c #8BB32E",
"P  c #8DB82F",
"I  c #91BC2C",
"U  c #82A630",
"Y  c #82A533",
"T  c #86AA33",
"R  c #85AC31",
"E  c #89AD34",
"W  c #85A738",
"Q  c #85A63C",
"!  c #84A839",
"~  c #86AA3C",
"^  c #8BAF3A",
"/  c #88AD3C",
"(  c #8CAE3D",
")  c #88B133",
"_  c #8DB430",
"`  c #8DB137",
"'  c #8CB435",
"]  c #8EB934",
"[  c #8CB339",
"{  c #8CB33B",
"}  c #8EB538",
"|  c #90BB35",
" . c #94BD34",
".. c #94BD3B",
"X. c #94BA3C",
"o. c #94BC3F",
"O. c #98C336",
"+. c #92C038",
"@. c #9CCA38",
"#. c #90B744",
"$. c #92BC40",
"%. c #9BBE44",
"&. c #9DC445",
/* pixels */
"3 4 - 3 3 3 - - 4 7 3 3 - 4 x 2 2 - - 3 . - p - = 4 3 - 3 . X X 5 4 } 4 _ 4 - - ",
"F * 3 - - 3 # 3 ; - - 3 - - - * R ; - - - - - 3 5 : 5 5 3 3 - 4 5 7 - - ; 3 ; e ",
": # 3 0 - 4 - 4 - 4 - 5 4 5 4 - ; 4 7 3 4 3 - - B y 4 u 3 4 3 4 5 - 8 3 ` = 4 = ",
"4 3 - - 4 3 - 3 5 4 4 5 5 4 2 2 3 4 4 5 4 4 3 ; 2 4 : { 5 4 3 - - 5 4 4 R 7 - 5 ",
"- 4 3 3 3 3 4 4 0 5 7 0 M - 4 3 h 5 4 4 k 5 f - - 3 5 5 2 - 3 3 3 7 4 5 5 5 5 4 ",
"4 4 3 4 4 4 - 3 - 3 5 4 n - 0 3 l 5 7 - 5 4 - - i 3 5 5 4 5 2 7 5 - - 3 5 9 - - ",
"3 5 5 5 3 3 2 4 5 o.L S Q 3 s 3 - - 5 4 7 x 5 2 - 4 4 5 - - O - 5 5 - ; 4 4 4 3 ",
"3 - - - - - 3 4 p 5 _ 2 P - 3 - - 3 f 4 4 y k 4 4 4 5 5 3 * 5 2 : - - 3 5 3 3 5 ",
"5 - - 5 4 - . - 2 4 r | - 4 7 L 6 - s : 5 5 3 - 3 G f ..5 4 - z - h - 4 4 5 5 3 ",
"- 3 - - 5 2 4 2 5 ^ D 0 8 * > @ 2 5 3 W ) 5 S F - : &.- # O 2 * & ! 3 - 3 3 7 - ",
"3 - 3 - h 5 3 3 - T Y q * - - q 0 - 3 k 5 4 3 . 3 4 : %.2 5 - * 2 ( 7 - 3 - 5 5 ",
"* 5 ; 3 - 2 4 3 - x c 4 - Z , 5 0 5 - 7 - 5 3 - 5 5 5 5 - @.- - 2 7 - 4 - 5 4 4 ",
"3 - 7 - - - 4 4 : ] { 5 5 4 4 : ; 3 - 0 : 5 - 4 5 5 4 4 g & r 2 4 u 5 4 - - - 3 ",
". 2 4 * 2 - 3 3 * ; - * - 0 - 5 4 5 # 4 5 4 - 5 5 g g 0 4 3 5 #.5 5 - 5 - 3 ; 3 ",
"4 : Y P 4 - 3 3 4 - : z - 4 0 4 k g - 3 - 3 5 - - & 4 4 5 3 3 3 4 4 3 4 5 4 3 - ",
"- 5 3 2 - : 4 3 7 3 - 5 3 3 3 4 - - 3 4 3 4 3 y ; 3 2 5 ; - - 3 7 7 5 4 g 4 4 4 ",
"3 - - - 2 3 5 $.; - - 3 - 3 3 : l 4 5 4 4 0 4 ; 4 . - 5 - 3 2 4 4 2 5 5 : 4 5 5 ",
"4 3 - - - x ; 0 M : Y y 3 4 3 3 3 0 : 5 7 ; T 0 - - 4 3 - 3 2 - - 4 5 5 5 - 4 3 ",
"- - 3 4 4 3 Y 0 5 ; z - - 7 3 - 3 5 0 0 0 4 5 q B - - 3 3 5 4 5 5 5 4 : 3 5 5 . ",
". - 3 3 { 3 0 - 7 y ; 4 5 7 3 3 g 4 5 4 > 0 X. .p - u y 4 4 4 5 7 5 5 X.; 3 - . ",
". - 3 3 4 V < 3 _  .0 5 5 5 7 5 0 - q 5 y ` 0 0 @ - 4 4 5 4 3 i 4 4 5 I - 5 - . ",
". - 3 4 5 0 5 4 0 : : y 4 4 0 - r 4 3 c 5 V F ' 5 , s 5 4 4 5 - 4 4 I 5 3 - & . ",
"- - 5 - a 3 z * 5 5 5 5 4 - 5 - - 5 5 : 5 5 k 5 u a 4 4 - 4 : 4 4 5 g 3 V - - - ",
"0 - 5 4 5 5 7 7 5 5 u h u 4 0 L 3 3 3 5 g - 4 ; 5 - $ 5 3 5 4 0 y , 2 3 4 ; - 3 ",
"4 4 y : k > 4 V 0 5 5 C 4 g - - 4 - 3 3 3 y : 0 V 4 4 2 - 7 3 q 3 7 5 5 3 3 3 - ",
", 4 5 5 * : - - 5 3 H / 5 4 - ; 4 - - 3 - 5 * ; m - 0 - - 5 + ' 3 3 5 3 3 4 - S ",
"- - - 5 5 4 - 5 g 7 5 - ! 4 - - - 5 3 - 7 - - 4 ; - 3 - p . v R , - 3 3 5 - 4 5 ",
": 7 5 H 7 3 4 - X 2 2 O - - 0 0 4 - - - - - - - 4 4 4 * @ y : 3 m - - 5 5 4 - 3 ",
"- 5 0 4 - 3 . 5 5 4 7 ; a = : 4 - 4 - 3 2 - 3 3 - : 4 5 ~ - : 5 : 0 - 4 5 3 3 - ",
"- - - 3 y 2 * X 3 5 h 7 0 0 ] 4 - 0 5 4 - 3 3 4 0 4 : J 2 E 2 +.- , @ ; - - 4 4 ",
"3 4 y - : 2 X : 3 > # & 0 3 u 4 3 0 4 y 5 - 5 - 5 O.g 3 W - 5 4 * x 5 3 - 2 - : ",
"- 3 - 3 4 X   2 - 3 0 b l 2 3 4 ! 3 ' E : 3 5 - - f * - a f 4 : 3 - 3 ; 5 2 3 5 ",
"- 3 - 3 3 7 ; 4 - 3 - 5 , 5 - & 4 3 @ - ) 4 * 3 - - 0 - 5 5 4 @ 5 5 3 k 3 - 4 4 ",
"- - 3 - 3 5 3 5 5 4 3 2 } h Z & . { ; 1 p 4 3 - - 2 R 4 p - @ % 5 i 4 4 5 - . . ",
"- - 4 5 5 3 - - Y 3 3 * 6 0 - p   a 2 : 3 2 - Y & 4 7 3 5 - 3 3 3 3 y 8 4 5 - . ",
"- - 5 5 5 5 3 3 - 2 ; ; - 4 5 { - 5 - ; M > : 7 3 - 0 5 3 - 4 3 5 g - k 5 - - - ",
"# - 4 5 3 3 3 . 2 3 2 - V 5 - 3 o - 3 = $ 5 4 - - - 3 3 4 O - 3 4 - - * 3 - - . ",
"- 3 3 5 - - - 3 5 - - 3 k 4 3 2 - - - - * - - 4 3 3 4 - 0 3 4 5 - 3 u q 4 @ - - ",
"- 5 4 5 3 - - - - 3 - - 5 5 - 3 - - - - . - - 7 3 4 3 - 3 3 4 - 3 3 h o.- R 5 3 ",
"+ 4 4 4 3 - - 3 - - 3 5 - - Z 5 2 - - . . - * { 4 4 4 5 - - * 5 7 4 2 : g - G - "
};
