/* XPM */
static char *_4018e6883964abb8f791ec404fddeb7SBSZqqwjoecYqzl5[] = {
/* columns rows colors chars-per-pixel */
"40 40 95 2 ",
"   c #010A08",
".  c #08100E",
"X  c #141A1A",
"o  c #18231F",
"O  c #191F21",
"+  c #1E2625",
"@  c #232C2B",
"#  c #26302E",
"$  c #28322F",
"%  c #272F32",
"&  c #2B3434",
"*  c #2E3836",
"=  c #2E3739",
"-  c #2F3938",
";  c #313836",
":  c #333C3C",
">  c #36413E",
",  c #39433F",
"<  c #373F41",
"1  c #374141",
"2  c #3A4444",
"3  c #3E4947",
"4  c #3E4648",
"5  c #3F4949",
"6  c #434D4C",
"7  c #46514E",
"8  c #454E50",
"9  c #475150",
"0  c #4A5553",
"q  c #4D5956",
"w  c #4F5A59",
"e  c #505B57",
"r  c #525D5B",
"t  c #55615E",
"y  c #59615E",
"u  c #555F60",
"i  c #566460",
"p  c #596662",
"a  c #5C6A65",
"s  c #5E6D69",
"d  c #5F706A",
"f  c #616B67",
"g  c #616E6A",
"h  c #63726D",
"j  c #68756E",
"k  c #677671",
"l  c #687470",
"z  c #687773",
"x  c #6B7775",
"c  c #677872",
"v  c #6B7871",
"b  c #697873",
"n  c #6A7975",
"m  c #6C7974",
"M  c #6F7B77",
"N  c #6D7C77",
"B  c #6E7D78",
"V  c #6E7E79",
"C  c #707D76",
"Z  c #707C77",
"A  c #707F7A",
"S  c #737E7D",
"D  c #737F7D",
"F  c #6E817B",
"G  c #72827A",
"H  c #75817A",
"J  c #72837D",
"K  c #77827D",
"L  c #79867F",
"P  c #778580",
"I  c #758680",
"U  c #798581",
"Y  c #7C8781",
"T  c #768983",
"R  c #798981",
"E  c #7B8A84",
"W  c #7A8B85",
"Q  c #7D8985",
"!  c #7D8C87",
"~  c #7E8D88",
"^  c #7D8E88",
"/  c #7C9189",
"(  c #828F86",
")  c #818C89",
"_  c #84928C",
"`  c #85948D",
"'  c #89958F",
"]  c #8B988F",
"[  c #869490",
"{  c #889791",
"}  c #8A9992",
"|  c #8C9992",
" . c #8D9D93",
".. c #8D9B94",
"X. c #94A09C",
/* pixels */
"Y 3 7 a K U M a 0 : : < 2 3 6 4 2 * & * r a g J C Q L C : : h | H z j H G A t o ",
"h h b A z b n N M 7 y a a p p t r r 3 i h h b h h z z b B p n h h g g h k h g h ",
"n B B B P B M z k & s z n z h g i 0 r i h h z k s h h h h g h g a a g h s a h h ",
"k N B B B B n M h & k M B N b h i 0 0 : z k k h g h z h h r a h z g h g h g g b ",
"s n z z b b n h s * w n M N g p r i 3 : q k s p p a g h M h a g z h p f U h h U ",
"2 3 : > 6 6 6 8 1 & = 2 5 x g 6 q 5 2 : 6 i h w r p 0 6 : 7 M C z 6 t h h & 9 * ",
"n g & * a h a a `  .k B * R h k k p i a t M q 2 g K } E U ! Q Q b B A G Q R G K ",
"i p ) s s h h h h a p p + s z k n n n z h h G K s z n n k k k g z B b M z G n z ",
"g g S a k k k h a a k s 2 h b n N b k k k h h C z h b n z z z Q t ~ h h K z k k ",
"h s 7 h k z k s a g a a * h h n n n z k k h t g z h s z h h z z a 7 k h k k g h ",
"h p * s a p i p a a s M @ w w i p s g h P p z : g g S x z a h z r p b g a g h g ",
"@ * 6 h z 3 & + 6 # 6 q ) R _ } U & 0 5 6 5 6 6 6 6 6 6 6 = y N h s p M 0 6 : q ",
"k d a a s g k ..~ n B n k N B k r : 6 5 3 6 6 6 9 6 6 6 6 K k n k E h B M Q N b ",
"a t a g h h s P 7 n B F J J B c 5 r r q 0 q t t r r 0 6 q k k N ~ M b n n S s a ",
"s i s g s h s P   N J P T P N N h Q i r t i r p 1 q 0 q 0 G n n b n z n M M p p ",
"p s a s s h s J a B B J F N ~ F n > a a r t a p 7 p i t r A n n M b n k s y p a ",
"a p r p a h g r i 2 3 2 - r n b s : 3 h p t 1 3 r r p i 2 ' N h p p a p i & z h ",
"M G G U , q  ._ A N h N B B B [ A _ h s g g h h k  .* 9 M M K R ! P q & B J h d ",
"g p s h 6 U n k h n g h h h h K b h a t t t p a s b E ~ b h d g a s { U h B B M ",
"a i a s C n h g h t s d h h g z > h i a p i p p s h ` G h h s s a h n N n F F P ",
"p i s s | k k n h s a k k k b h : h a s s s p p a h | U h h h h s s K G n F J P ",
"7 p s z A _ N n c h E h h h k h f h s M h h h h s h { y h g p Q h k G ` n B J G ",
"s s h a q t r r 3 0 g h g a 6 - : ; : # 2 O 3 0 q r e 0 : : q - : 0 - 6 K z z z ",
": y R G N R P J n M b  .U a a t s h p h h 1 ` b k b n F N N b k r : 4 4 3 4 6 2 ",
": > h t i q r i t p q s e r a a t p p p p 2 J b k A n N n G F F K < < < 6 2 9 : ",
"3 0 g r 0 w r q 0 0 0 p A p p t t i p p p 6 M G J P J J F F J J M 2 4 9 6 6 0 9 ",
"q 0 h i p r 0 q r p t s K p p t a r p r p A w a ~ J P J J T G J 6 3 0 t t r r q ",
"w $ b p t w u i s g h E g A z A h K g a a x 6 P G B J J J B J R 9 9 q 0 r p p r ",
"6 : z h g h 0 i : 1 : > 1 & 2 3 0 g : : 6 < : 3 + 6 3 * & < 6 < 6 2 2 0 0 0 4 1 ",
"k h h h h ( U 6 S E ! T ~ ~ R R P J 2 ~ h n n J N b B h B z a p r 3 r 9 6 0 - n ",
"h h h h c J G g / T F n G G J J J P _ ) J G J J J B P J B ' M q p t r r i 0 2 h ",
"s s h k n A J t T F B n N F P T J F E ` B F F P P J J B N ` A p p a r t t g p b ",
"h s a h N A B n J J J B G T P J J F ! ~ R F P F N N F T J J h r p p t a p 9 g b ",
"c h ! h n G J @ h M P B P B A G G G : 0 J N J J J J F J G B 2 6 f a r t p a r n ",
"U K + & & k ' N ( ' ] ` ..& 4 3 6 9 p k z w : * r a g 0 : * & @ * & : * % & & X ",
"s g X.h b M n n b h h n h p P E E ~ E E T T T * ) ) 0 t h s h h G M N g A s h h ",
"p p J A M M M N N n k n k z T E ~ ~ ~ E T ~ ~ N a p p a s s g g a h k Q Q p t t ",
"t a N R b b b N B n k b h 0 ~ ~ E T ~ ~ ~ T T R a a i t g a a s s a h h 0 p a t ",
"i a U Q b n b k k k k k h 7 E E ~ ~ ~ ~ / ~ J _ h p a p a a s a a a a g q a s t ",
"a h h @ M f i > a y a a s : t k J g g a z g 3 : q p q q q 3 r t p t h g . g N h "
};
